<svg id="Capa_1" data-name="Capa 1" xmlns="http://www.w3.org/2000/svg" viewBox="0 0 627.14 135.53"><defs><style>.cls-1{fill:#070707;}.cls-2{fill:#fdfdfd;}</style></defs><path class="cls-1" d="M1418.83,1022.24a1.55,1.55,0,0,1-.49-2.28c.59-1,.09-1.79-.61-2.59a37.6,37.6,0,0,0-12.88-9.87c-8.94-4-17.59-3.79-25.71,2a4.07,4.07,0,0,1-3.78.46c-1.1-.25-1.49-.75-1.16-1.84s.66-2.43,1-3.65.37-2.12-1.25-2.22a9.65,9.65,0,0,1-1.69-.46L1330.77,991c-2.45-.64-2.55-.67-2.31-3.18.15-1.55-.54-1.74-1.8-1.87-4.46-.46-8.9-1.05-13.35-1.57-3.77-.44-7.55-.82-11.31-1.29-1.22-.16-1.83.2-1.92,1.45a31.38,31.38,0,0,1-.34,3.19c-.41,2.35-.25,4.8-1,7.17-.3-.21-.55-.3-.57-.42-.71-3.86-3.29-5.08-6.86-4.94-.28,0-.58-.12-.86-.11a1.64,1.64,0,0,1-1.7-1.27c-.66-1.72-1.53-3.37-2.14-5.1a2.5,2.5,0,0,0-2.47-1.94c-4.33-.42-8.64-1-13-1.56-1-.12-2.07-.07-1.68-1.61.29-1.17-.56-1.23-1.34-1.38-8.95-1.7-17.9-3.37-26.83-5.14-1.52-.31-1.91.39-2.13,1.55-.27,1.43-.48,2.87-.74,4.3-.09.45,0,1.11-.62,1.16a6.82,6.82,0,0,1-4-.65c-1.23-.71-.09-1.73-.07-2.61a15.71,15.71,0,0,1,.52-2.56c.42-2.2.31-2.42-2-2.85q-12.71-2.41-25.43-4.76c-2.21-.41-2.29-.31-2.78,1.74-.6,2.49-.59,2.48-3.16,2.37l-14.85-.58c-5.14-.2-10.29-.26-15.42-.63-3.29-.24-6.58-.08-9.89-.45a93.32,93.32,0,0,0-10.45-.09c-.53,3.16-1.24,3.46-4.64,2,.31-1.11,1.65-1.65,1.68-3a15.35,15.35,0,0,0-4.27-.43q-13.17-1-26.34-2.14a3.33,3.33,0,0,0-3.41,1.58c-2.6,3.75-5.4,7.36-8.12,11-.4.53-.66,1.21-1.62,1.23-1.23-2.35-2.48-4.75-3.75-7.14-.32-.6-.58-1.54-1.06-1.68-1.93-.56-2.29-2.3-2.92-3.73-1-2.25-2.55-3-5-3.08-4.55-.09-9.09-.54-13.61-1.07-1.2-.14-2-.19-2.13-1.69-.07-1.13-1-.86-1.82-.78-3.46.39-6.94.83-10.37,1.38-9,1.45-18,2.58-27,4-4.2.63-8.4,1.22-12.64,1.84a10.05,10.05,0,0,0,.12,2.22c.7,2.31,0,2.21-1.92,2.2-4.48,0-9,0-13.44,0-2.22,0-2.23,0-2.26,2.21,0,1.36,0,2.73,0,4.09v6.39c-.56.18-.68.08-.76-.15-1.31-3.8-3.8-5.63-7.92-4.76-1.28.27-1.94-.47-2.47-1.54-.73-1.47-1.78-2.82-2.36-4.34-.65-1.72-1.78-1.95-3.39-1.94-7.5.07-15,0-22.5,0-3.83,0-3.25-.39-3.28,3.23,0,3.46,0,6.93,0,10.87-10.15-6.31-20.58-8.34-31.79-5.45-11.4,3-19.59,9.94-25.31,20.52-12.82-11.76-27.34-16.09-43.55-9.5s-23.87,19.54-24.27,37.09c-.39-.4-.57-.52-.64-.68-.89-2.15-1.72-4.34-2.67-6.47-.55-1.23-.63-3-1.76-3.57s-2.45.75-3.74,1.08a4.13,4.13,0,0,0-.53.24c-1,.51-1.75.51-2.18-.82s-1.14-2.9-1.75-4.33c-.85-2-.87-2-2.9-1.23q-12.6,5-25.19,10.1c-2.31.92-2.31.94-1.36,3.26q8.22,20,16.43,39.94,4.93,12,9.86,24c.77,1.88.81,1.88,2.71,1.15l5.15-2c.74,1.8,1.34,3.33,2,4.85.77,1.81.8,1.83,2.74,1l43-17.34c2.34-.94,2.29-.94,1.44-3.28-.71-2-2-3.72-2.19-5.9,3.7.11,7.17.78,10.77.5,10.78-.85,19.49-5.5,26.54-13.52,1.46-1.65,1.43-1.66,3.29-.22,8,6.18,16.87,9.19,27.06,8.44a37.1,37.1,0,0,0,22.8-9.85c1.48-1.34,2.82-2.84,4.28-4.32.62,2.22.62,2.23,2.83,2.23,7.7,0,15.4,0,23.1,0,1.52,0,2-.47,2-2-.08-4.68,0-9.36,0-14,0-.57-.39-1.34.53-1.82,1.92,3.3,3.81,6.57,5.7,9.83.49.84.9,1.84,2.15,1.55,2.81-.67,4,1,5,3.21.32.7.8,1.33,1.15,2a2.08,2.08,0,0,0,2.08,1.23q12-.06,24,0c1.27,0,1.71-.39,1.69-1.66-.07-3.16,0-6.32,0-9.87a5,5,0,0,1,1.37,3.17c.24,1.45,1,1.69,2.24,1.51,2.68-.4,5.36-.8,8-1.16,10.84-1.45,21.69-2.87,32.54-4.36a11.37,11.37,0,0,1,3.72-.31c0,.82,0,1.49,0,2.17,0,2.22,0,2.18,2.13,2.31,4.45.26,8.9.54,13.35.87s8.69.69,13,1.06c1,.09,1.3-.36,1.34-1.34.07-1.93.29-3.85.44-5.78.56-7.54,1.15-15.07,1.64-22.61a4.84,4.84,0,0,1,1.32-2.8q12.68-16.17,25.32-32.37c.37-.48.66-1.12,1.66-1.26-.22,5.93-.43,11.7-.64,17.42a25.45,25.45,0,0,0,7,.59c1.61-.15,1.79.73,1.63,1.95-.06.48-.18,1-.26,1.43-.52,3.29-.37,3.52,3,3.63,1.06,0,1.58.22,1.54,1.45-.13,3.89,0,7.79-.26,11.68-.45,7.75-.66,15.51-1,23.27-.06,1.58.64,2.1,1.94,2.17,1.66.08,3.32.09,5,0,1,0,1.37.37,1.33,1.36-.06,1.37,0,2.73,0,4.1,0,1.07.3,1.59,1.48,1.59,4.56,0,9.12.29,13.67.53s8.93,0,13.38.6c1.83.23,2.23-.17,2.29-2.05.1-3.6.17-7.2.19-10.8a14.52,14.52,0,0,1,.79-5c2.28,3,5.14,5,7,8a18.91,18.91,0,0,0,5.77,5.7c9.42,6.24,19.76,8.19,30.87,6.8,1.91-.24,3.64-1.3,5.67-1s4.23.46,6.36.63c1,.07,1.24.48,1.26,1.47,0,1.61-.93,3.18-.22,4.93l15.28,1.79c3.26.38,6.54.73,9.8,1.17,1.38.19,2.13,0,2.25-1.64.23-3.28.72-6.55,1.13-9.81.22-1.73.48-3.46.73-5.18a80.53,80.53,0,0,1,4.76,9.77c.46,1.09.89,1.85,2.26,1.8,2.25-.09,3.87.81,4.4,3.19.08.37.39.69.46,1.07.44,2.49,2.19,3,4.39,3.16,3.65.29,7.28.8,11,1.22a10.66,10.66,0,0,1-.15,1.31c-.59,2.37-.6,2.38,1.74,3q20.68,5.43,41.39,10.82a6.25,6.25,0,0,1,3.14,1.41c4.56,4.59,10.47,6.55,16.46,8.29a20.34,20.34,0,0,0,6.07.74c19.69-.27,31.35-21.92,24.07-37-2.15-4.46-4-9.1-6.7-13.28a5.94,5.94,0,0,1-.6-1,1.5,1.5,0,0,1,1.5-2.18,4.49,4.49,0,0,1,2.44.87,15.31,15.31,0,0,1,4,4.18c1.86,2.63,3.27,5.53,4.9,8.29.3.51.35,1.41,1.39,1.28q1.57-4.67,3.17-9.37,2.61-7.66,5.26-15.32v-1.75C1420.57,1024.66,1420,1023.1,1418.83,1022.24Zm-594.17,63.25c-8.39-20.41-16.75-40.73-25.17-61.22,5.62-2.28,11.08-4.54,16.58-6.7,1.95-.76,3.78-1.89,5.93-2.1a32.73,32.73,0,0,1,2.45,5.56c4.65,11.2,9.23,22.43,13.84,33.65.8,1.94.82,2,2.83,1.16,5.58-2.2,11.15-4.42,16.86-6.68,2.7,6.56,5.34,13,8.09,19.69Zm78.77-38c-7.51,8.62-17.15,12.38-28.48,12.07a8.76,8.76,0,0,1-1.45-.09c-2.57-.48-5.48-.38-7.55-1.87s-2.17-4.43-3.22-6.7c-1-2.1-1.79-4.28-2.75-6.61-2.68,1.09-5,2-7.35,3a2.11,2.11,0,0,1-2.93-.74,34.43,34.43,0,0,1-7.08-16.09c-1.77-11.34,1.56-21.23,9.45-29.35a34.38,34.38,0,0,1,38.14-7.83c11.73,4.87,19,13.75,21.12,26.26A32.64,32.64,0,0,1,903.43,1047.52Zm62.22-7.35a35,35,0,0,1-50.36-1.18,3.62,3.62,0,0,1-1-3.87,37,37,0,0,0-4.53-30.16,3.39,3.39,0,0,1-.23-3.75c5.44-10.67,14-17.18,25.8-19.36.86-.16,1.72-.31,2.58-.39,1.06-.09,2.13-.1,3.2-.15,18.75.31,32.1,13.7,34.38,29.33C977.11,1022.13,973.82,1032.15,965.65,1040.17Zm63-.26c-6.14,0-12.27,0-18.41,0a2.7,2.7,0,0,1-2.72-1.58c-5.44-9.41-11-18.78-16.48-28.16a16.4,16.4,0,0,0-2.72-4v30.26c0,.68,0,1.37,0,2,.05.92-.18,1.44-1.26,1.42-3.49,0-7,0-10.44,0-.22-1.49.71-2.4,1-3.5a44.47,44.47,0,0,0,1.7-9.42c.18-4,.22-8,.21-12A35.5,35.5,0,0,0,969,989.58a5.9,5.9,0,0,1-2-4.81c.18-3,.09-6,0-9.06,0-1.3.23-1.91,1.76-1.89,6.23.08,12.47.11,18.7,0,1.72,0,2.11,1.06,2.71,2.12,5.17,9.12,10.3,18.27,15.5,27.38a42.69,42.69,0,0,0,4,6.61v-3.44q0-15.19,0-30.39c0-2.19,0-2.22,2.23-2.22,5.36,0,10.72,0,16.08,0,2.45,0,2.33-.06,2.33,2.44,0,13.44-.18,26.89.07,40.32.13,7,.28,14,.33,21C1030.81,1040,1030.73,1039.92,1028.62,1039.91Zm51.64-11.77c-13.33,1.83-26.63,3.8-40,5.72-.38.06-.77.08-1.16.11-2.16.18-2.17.18-2.51-2-.72-4.68-1.45-9.36-2.12-14.06a26.45,26.45,0,0,1-.21-3.78c0-6.72,0-13.44,0-20.16q0-10.82,0-21.62c0-2.16,0-2.17-2.26-2.2-1.17,0-2.34,0-3.51,0-.38,0-.83,0-.89-.53a.85.85,0,0,1,.82-1l4-.56c10.25-1.5,20.51-2.9,30.76-4.34,2.3-.33,4.61-.62,6.89-1.05,1.2-.23,1.8.08,2,1.29q1,7.18,2.1,14.37c.21,1.4-.4,1.79-1.75,2-5.28.68-10.53,1.52-15.8,2.26-2.48.35-2.48.31-2,2.91,0,.29.08.58.12.86.5,3.6.5,3.61,4,3.11,4.4-.64,8.82-1.21,13.19-2,1.56-.28,1.93.4,2.1,1.57.62,4.22,1.16,8.44,1.81,12.65.2,1.3,0,1.88-1.5,2.07-5,.62-9.95,1.5-14.94,2.13-1.41.18-1.93.59-1.55,2,.15.55.2,1.14.3,1.71.69,3.89.68,3.84,4.68,3.21q7.17-1.12,14.36-2.1c2.43-.33,2.41-.26,2.74,2,.62,4.41,1.23,8.82,1.94,13.22C1082.1,1027.33,1081.92,1027.91,1080.26,1028.14Zm58.85-56.5c-8,10.51-16,21-24.07,31.47a8.77,8.77,0,0,0-1.84,5.06c-.53,7.92-1.19,15.83-1.69,23.76-.08,1.4-.67,1.62-1.79,1.55-4.84-.32-9.68-.61-14.51-.93-2-.13-4.06-.37-6.09-.41-1.19,0-1.5-.49-1.43-1.58.26-3.58.38-7.17.7-10.74.46-5.11.89-10.22,1.12-15.36a4.92,4.92,0,0,0-.82-2.71c-2.8-5-5.4-10.13-8.5-14.93-1.92-3-1.79-6.25-2.39-9.42-.68-3.61-1-7.29-1.67-10.91-.28-1.51.37-1.66,1.52-1.59,4.06.24,8.11.76,12.19.79,1.69,0,2.7,1,3.48,2.56,3,5.87,6.06,11.66,9.09,17.46.92-.27,1.21-.92,1.61-1.45,3.61-4.82,7.26-9.61,10.81-14.48a4,4,0,0,1,4.11-1.89c6.17.57,12.37.88,18.55,1.28.2,0,.4,0,.59,0,.74.11,1.7.16,2,.79S1139.5,971.12,1139.11,971.64Zm54.58,21.88c-3,0-3.1,0-3.25,3.13-.25,5.43-.41,10.86-.62,16.29-.32,8-.67,16.08-1,24.13,0,1.15-.44,1.47-1.55,1.5-3.5.09-7-.38-10.46-.5-4-.13-8,.31-12.15-.77,0-2.09-.07-4.3,0-6.52.22-6.59.45-13.19.77-19.78.26-5.24.58-10.47.57-15.71,0-2.9,0-3-2.76-2.91-3,.13-6-.54-9-.41-1,0-1.38-.4-1.29-1.37.34-3.77,0-7.56.48-11.34.27-2,0-4.08.12-6.12s.21-2.13,2.36-1.9c2.71.29,5.44.07,8.16.22,6.4.34,12.82.25,19.21.69,6.58.46,13.19.16,19.75.9,1,.11,1.63.13,1.58,1.42-.26,6.38-.45,12.76-.65,19Zm56.26,41.09a21.84,21.84,0,0,1-13.45,6.34,42.26,42.26,0,0,1-24.48-4.51c-8.21-4.35-12.27-11.28-12.63-20.48-.23-5.79,1.47-11.32,2.32-17,.17-1.13.82-1.34,1.82-1.4,1.31-.07,3,.67,3.83-.4.61-.84.16-2.45.22-3.71.36-8,.73-16.07,1.11-24.26,6.58,1.25,13,2.46,19.52,3.73,2,.39,2,.48,1.6,2.37-2.26,11.91-4.5,23.81-6.8,35.7a19,19,0,0,0-.31,2.89c-.19,4.73,4,7.65,8.45,6.09,2.26-.78,3.07-2.65,3.58-4.62.78-3,1.3-6.06,1.89-9.11q2.79-14.41,5.54-28.84a15.5,15.5,0,0,1,.59-1.8l22.47,4.24c-.78,4.22-1.51,8.37-2.31,12.51-1.72,8.94-3.41,17.9-5.24,26.82C1256.48,1025,1254.27,1030.34,1250,1034.61Zm45.87,18.19c-1.48-.15-1.59-1.28-2-2.18-2.49-5.59-4.91-11.2-7.35-16.8q-3.13-7.2-6.28-14.41c-.34-.78-.76-1.53-1.14-2.3h-.47c-.33,2.66-.65,5.31-1,8-1,7.88-1.93,15.75-2.8,23.63-.14,1.33-.7,1.65-1.86,1.52-6-.72-12.09-1.46-18.15-2.13-1-.12-1.34-.66-1.23-1.55.44-3.85.89-7.69,1.39-11.53a3.92,3.92,0,0,1,.77-1.54c3.35-4.91,5-10.41,6.09-16.2,1.94-10.58,4-21.13,6.06-31.69.51-2.6.66-2.61,3.22-2.28,3.17.41,6.35.72,9.52,1.06a3.76,3.76,0,0,1,3.56,2.65c4.65,11.41,9.49,22.74,14.28,34.09.17.39.15,1,1.06,1.09,1.34-11.57,2.68-23.13,4-34.84a13.65,13.65,0,0,1,4.24.28c4.23.53,8.47,1,12.71,1.39a15.33,15.33,0,0,1,2,.3c2,.49,1.92.44,1.67,2.44-.7,5.57-1.36,11.14-2,16.71q-1.74,14.4-3.47,28.81c-.62,5.29-1.25,10.57-1.76,15.87-.14,1.46-.45,2.07-2.09,1.85Q1305.35,1053.79,1295.82,1052.8Zm58.93,16.74L1314.37,1059c1.18-.49,2.12.11,3.21.09,2.46-.06,2.46.05,2.75-2.47q2.09-18.31,4.18-36.63c.94-8.07,1.92-16.14,2.89-24.21a2.17,2.17,0,0,1,.58-1.6l43.06,11.21c-1.23,4.68-2.37,9.16-3.58,13.62-1,3.63-1,3.6-4.56,2.62q-7.15-1.95-14.33-3.84c-1.75-.46-2-.41-2.33,1.46-.32,1.58-1.62,3.34-.9,4.66s2.94,1.08,4.5,1.51c3.55,1,7.13,1.88,10.68,2.84,2.43.65,2.46.68,1.86,3q-1.49,5.78-3.06,11.53c-.52,1.92-.66,2-2.62,1.47-4.6-1.2-9.19-2.43-13.78-3.62-2.21-.57-2.29-.56-2.75,1.58-.34,1.58-1.79,3.37-.83,4.64.76,1,2.8,1,4.29,1.43,4.68,1.26,9.37,2.52,14.07,3.67,1.1.27,1.53.69,1.24,1.78Zm15.87-24.39c2,3.25,3.66,6,5.3,8.72a6.67,6.67,0,0,1,.8,1.86c.26,1.09-.35,1.76-1.44,1.47a15.63,15.63,0,0,1-6.1-3.29,1.58,1.58,0,0,1-.43-1.83C1369.34,1049.94,1369.91,1047.8,1370.62,1045.15Zm43.45-24.46c-2,5-3.77,9.94-5.74,15.22a15.34,15.34,0,0,0-9.13-8.81c-2.19-.83-4.23-.84-6,.8s-1.88,4-1.17,6.23a22.17,22.17,0,0,0,2.91,5.37c1.27,2,2.54,3.9,3.67,6a21.55,21.55,0,0,1,1,19.63c-3.07,7.19-8.2,12.27-16,14.11a22.61,22.61,0,0,1-12.65-.56,39.54,39.54,0,0,1-11.73-6.36c-.67-.53-1.2-1-1-1.89,1.59-5.87,3.18-11.73,4.88-18a17.5,17.5,0,0,0,8.63,7.6,9.69,9.69,0,0,0,3.62,1,4.68,4.68,0,0,0,5-6.11,13.91,13.91,0,0,0-2-4.18,64.83,64.83,0,0,1-5.51-9.92,21.36,21.36,0,0,1,0-17.8c3.19-7,8.24-12.09,15.88-13.85,6.82-1.57,13.1.38,18.8,4.22a34.82,34.82,0,0,1,5.83,4.82A2.07,2.07,0,0,1,1414.07,1020.69Z" transform="translate(-794.91 -958.46)"/><path class="cls-2" d="M1316.93,1053.17c.51-5.3,1.14-10.58,1.76-15.87q1.71-14.41,3.47-28.81c.67-5.57,1.33-11.14,2-16.71.25-2,.28-1.95-1.67-2.44a15.33,15.33,0,0,0-2-.3c-4.24-.44-8.48-.86-12.71-1.39a13.65,13.65,0,0,0-4.24-.28c-1.35,11.71-2.69,23.27-4,34.84-.91-.1-.89-.7-1.06-1.09-4.79-11.35-9.63-22.68-14.28-34.09a3.76,3.76,0,0,0-3.56-2.65c-3.17-.34-6.35-.65-9.52-1.06-2.56-.33-2.71-.32-3.22,2.28-2.05,10.56-4.12,21.11-6.06,31.69-1.06,5.79-2.74,11.29-6.09,16.2a3.92,3.92,0,0,0-.77,1.54c-.5,3.84-1,7.68-1.39,11.53-.11.89.18,1.43,1.23,1.55,6.06.67,12.11,1.41,18.15,2.13,1.16.13,1.72-.19,1.86-1.52.87-7.88,1.85-15.75,2.8-23.63.32-2.66.64-5.31,1-8h.47c.38.77.8,1.52,1.14,2.3q3.15,7.2,6.28,14.41c2.44,5.6,4.86,11.21,7.35,16.8.39.9.5,2,2,2.18q9.53,1,19,2.22C1316.48,1055.24,1316.79,1054.63,1316.93,1053.17Z" transform="translate(-794.91 -958.46)"/><path class="cls-2" d="M890.21,993.31a34.38,34.38,0,0,0-38.14,7.83c-7.89,8.12-11.22,18-9.45,29.35a34.43,34.43,0,0,0,7.08,16.09,2.11,2.11,0,0,0,2.93.74c2.32-1,4.67-1.91,7.35-3,1,2.33,1.78,4.51,2.75,6.61,1,2.27,1.21,5.25,3.22,6.7s5,1.39,7.55,1.87a8.76,8.76,0,0,0,1.45.09c11.33.31,21-3.45,28.48-12.07a32.64,32.64,0,0,0,7.9-27.95C909.21,1007.06,901.94,998.18,890.21,993.31Zm-13.16,44.53a12.39,12.39,0,0,1-12.85-12.65c0-7,5-12.31,12.79-12.76,7.2.22,12.82,5.4,12.82,12.69C889.81,1031.78,885.16,1037.81,877.05,1037.84Z" transform="translate(-794.91 -958.46)"/><path class="cls-2" d="M941.06,981.31c-1.07.05-2.14.06-3.2.15-.86.08-1.72.23-2.58.39-11.8,2.18-20.36,8.69-25.8,19.36a3.39,3.39,0,0,0,.23,3.75,37,37,0,0,1,4.53,30.16,3.62,3.62,0,0,0,1,3.87,35,35,0,0,0,50.36,1.18c8.17-8,11.46-18,9.79-29.53C973.16,995,959.81,981.62,941.06,981.31Zm-.18,47.18a12.25,12.25,0,0,1-12.5-12.67c-.32-7.29,5.92-12.76,12.74-12.71a12.67,12.67,0,0,1,12.72,12.83C953.68,1022.4,949.05,1028.59,940.88,1028.49Z" transform="translate(-794.91 -958.46)"/><path class="cls-2" d="M1262.91,992.39c.8-4.14,1.53-8.29,2.31-12.51l-22.47-4.24a15.5,15.5,0,0,0-.59,1.8q-2.78,14.41-5.54,28.84c-.59,3.05-1.11,6.11-1.89,9.11-.51,2-1.32,3.84-3.58,4.62-4.5,1.56-8.64-1.36-8.45-6.09a19,19,0,0,1,.31-2.89c2.3-11.89,4.54-23.79,6.8-35.7.36-1.89.36-2-1.6-2.37-6.47-1.27-12.94-2.48-19.52-3.73-.38,8.19-.75,16.23-1.11,24.26-.06,1.26.39,2.87-.22,3.71-.78,1.07-2.52.33-3.83.4-1,.06-1.65.27-1.82,1.4-.85,5.64-2.55,11.17-2.32,17,.36,9.2,4.42,16.13,12.63,20.48a42.26,42.26,0,0,0,24.48,4.51,21.84,21.84,0,0,0,13.45-6.34c4.32-4.27,6.53-9.6,7.72-15.4C1259.5,1010.29,1261.19,1001.33,1262.91,992.39Z" transform="translate(-794.91 -958.46)"/><path class="cls-2" d="M1030.46,1016.6c-.25-13.43-.07-26.88-.07-40.32,0-2.5.12-2.44-2.33-2.44-5.36,0-10.72,0-16.08,0-2.19,0-2.23,0-2.23,2.22q0,15.2,0,30.39v3.44a42.69,42.69,0,0,1-4-6.61c-5.2-9.11-10.33-18.26-15.5-27.38-.6-1.06-1-2.16-2.71-2.12-6.23.13-12.47.1-18.7,0-1.53,0-1.79.59-1.76,1.89.06,3,.15,6,0,9.06a5.9,5.9,0,0,0,2,4.81A35.5,35.5,0,0,1,979.52,1015c0,4,0,8-.21,12a44.47,44.47,0,0,1-1.7,9.42c-.3,1.1-1.23,2-1,3.5,3.47,0,6.95,0,10.44,0,1.08,0,1.31-.5,1.26-1.42,0-.68,0-1.37,0-2v-30.26a16.4,16.4,0,0,1,2.72,4c5.52,9.38,11,18.75,16.48,28.16a2.7,2.7,0,0,0,2.72,1.58c6.14-.06,12.27,0,18.41,0,2.11,0,2.19.09,2.17-2.31C1030.74,1030.6,1030.59,1023.6,1030.46,1016.6Z" transform="translate(-794.91 -958.46)"/><path class="cls-2" d="M1079.93,1012.7c-.33-2.3-.31-2.37-2.74-2q-7.18,1-14.36,2.1c-4,.63-4,.68-4.68-3.21-.1-.57-.15-1.16-.3-1.71-.38-1.39.14-1.8,1.55-2,5-.63,9.95-1.51,14.94-2.13,1.52-.19,1.7-.77,1.5-2.07-.65-4.21-1.19-8.43-1.81-12.65-.17-1.17-.54-1.85-2.1-1.57-4.37.79-8.79,1.36-13.19,2-3.49.5-3.49.49-4-3.11,0-.28-.07-.57-.12-.86-.45-2.6-.45-2.56,2-2.91,5.27-.74,10.52-1.58,15.8-2.26,1.35-.17,2-.56,1.75-2q-1.07-7.19-2.1-14.37c-.17-1.21-.77-1.52-2-1.29-2.28.43-4.59.72-6.89,1.05-10.25,1.44-20.51,2.84-30.76,4.34l-4,.56a.85.85,0,0,0-.82,1c.06.48.51.52.89.53,1.17,0,2.34,0,3.51,0,2.22,0,2.25,0,2.26,2.2q0,10.81,0,21.62c0,6.72,0,13.44,0,20.16a26.45,26.45,0,0,0,.21,3.78c.67,4.7,1.4,9.38,2.12,14.06.34,2.19.35,2.19,2.51,2,.39,0,.78,0,1.16-.11,13.32-1.92,26.62-3.89,40-5.72,1.66-.23,1.84-.81,1.61-2.22C1081.16,1021.52,1080.55,1017.11,1079.93,1012.7Z" transform="translate(-794.91 -958.46)"/><path class="cls-2" d="M1357.7,1052c-4.7-1.15-9.39-2.41-14.07-3.67-1.49-.39-3.53-.44-4.29-1.43-1-1.27.49-3.06.83-4.64.46-2.14.54-2.15,2.75-1.58,4.59,1.19,9.18,2.42,13.78,3.62,2,.51,2.1.45,2.62-1.47q1.58-5.76,3.06-11.53c.6-2.35.57-2.38-1.86-3-3.55-1-7.13-1.85-10.68-2.84-1.56-.43-3.75-.13-4.5-1.51s.58-3.08.9-4.66c.37-1.87.58-1.92,2.33-1.46q7.17,1.9,14.33,3.84c3.55,1,3.58,1,4.56-2.62,1.21-4.46,2.35-8.94,3.58-13.62L1328,994.18a2.17,2.17,0,0,0-.58,1.6c-1,8.07-2,16.14-2.89,24.21q-2.12,18.32-4.18,36.63c-.29,2.52-.29,2.41-2.75,2.47-1.09,0-2-.58-3.21-.09l40.38,10.54,4.19-15.77C1359.23,1052.68,1358.8,1052.26,1357.7,1052Z" transform="translate(-794.91 -958.46)"/><path class="cls-2" d="M1138.08,969.19c-.19,0-.39,0-.59,0-6.18-.4-12.38-.71-18.55-1.28a4,4,0,0,0-4.11,1.89c-3.55,4.87-7.2,9.66-10.81,14.48-.4.53-.69,1.18-1.61,1.45-3-5.8-6.13-11.59-9.09-17.46-.78-1.55-1.79-2.54-3.48-2.56-4.08,0-8.13-.55-12.19-.79-1.15-.07-1.8.08-1.52,1.59.65,3.62,1,7.3,1.67,10.91.6,3.17.47,6.43,2.39,9.42,3.1,4.8,5.7,9.93,8.5,14.93a4.92,4.92,0,0,1,.82,2.71c-.23,5.14-.66,10.25-1.12,15.36-.32,3.57-.44,7.16-.7,10.74-.07,1.09.24,1.56,1.43,1.58,2,0,4.06.28,6.09.41,4.83.32,9.67.61,14.51.93,1.12.07,1.71-.15,1.79-1.55.5-7.93,1.16-15.84,1.69-23.76a8.77,8.77,0,0,1,1.84-5.06c8.08-10.45,16.07-21,24.07-31.47.39-.52,1.29-1,1-1.66S1138.82,969.3,1138.08,969.19Z" transform="translate(-794.91 -958.46)"/><path class="cls-2" d="M1204.66,974.47c0-1.29-.59-1.31-1.58-1.42-6.56-.74-13.17-.44-19.75-.9-6.39-.44-12.81-.35-19.21-.69-2.72-.15-5.45.07-8.16-.22-2.15-.23-2.28-.21-2.36,1.9s.15,4.11-.12,6.12c-.5,3.78-.14,7.57-.48,11.34-.09,1,.24,1.42,1.29,1.37,3-.13,6,.54,9,.41,2.75-.11,2.75,0,2.76,2.91,0,5.24-.31,10.47-.57,15.71-.32,6.59-.55,13.19-.77,19.78-.08,2.22,0,4.43,0,6.52,4.19,1.08,8.19.64,12.15.77,3.49.12,7,.59,10.46.5,1.11,0,1.51-.35,1.55-1.5.28-8,.63-16.09,1-24.13.21-5.43.37-10.86.62-16.29.15-3.16.21-3.14,3.25-3.13H1204C1204.21,987.23,1204.4,980.85,1204.66,974.47Z" transform="translate(-794.91 -958.46)"/><path class="cls-2" d="M1407.6,1013.33c-5.7-3.84-12-5.79-18.8-4.22-7.64,1.76-12.69,6.88-15.88,13.85a21.36,21.36,0,0,0,0,17.8,64.83,64.83,0,0,0,5.51,9.92,13.91,13.91,0,0,1,2,4.18,4.68,4.68,0,0,1-5,6.11,9.69,9.69,0,0,1-3.62-1,17.5,17.5,0,0,1-8.63-7.6c-1.7,6.29-3.29,12.15-4.88,18-.24.91.29,1.36,1,1.89a39.54,39.54,0,0,0,11.73,6.36,22.61,22.61,0,0,0,12.65.56c7.78-1.84,12.91-6.92,16-14.11a21.55,21.55,0,0,0-1-19.63c-1.13-2-2.4-4-3.67-6a22.17,22.17,0,0,1-2.91-5.37c-.71-2.25-.65-4.49,1.17-6.23s3.76-1.63,6-.8a15.34,15.34,0,0,1,9.13,8.81c2-5.28,3.79-10.27,5.74-15.22a2.07,2.07,0,0,0-.64-2.54A34.82,34.82,0,0,0,1407.6,1013.33Z" transform="translate(-794.91 -958.46)"/><path class="cls-2" d="M841.12,1055.84c-2,.79-2,.78-2.83-1.16-4.61-11.22-9.19-22.45-13.84-33.65a32.73,32.73,0,0,0-2.45-5.56c-2.15.21-4,1.34-5.93,2.1-5.5,2.16-11,4.42-16.58,6.7,8.42,20.49,16.78,40.81,25.17,61.22l41.41-16.64c-2.75-6.68-5.39-13.13-8.09-19.69C852.27,1051.42,846.7,1053.64,841.12,1055.84Z" transform="translate(-794.91 -958.46)"/><path class="cls-1" d="M877,1012.43c-7.81.45-12.74,5.78-12.79,12.76a12.39,12.39,0,0,0,12.85,12.65c8.11,0,12.76-6.06,12.76-12.72C889.81,1017.83,884.19,1012.65,877,1012.43Zm9,12.74a9.13,9.13,0,0,1-6.25,8.47,2,2,0,0,1-2.49-.84,6.39,6.39,0,0,1-.09-7.61,6.65,6.65,0,0,1,7.52-2.36C886,1023.32,886,1024.29,886,1025.17Z" transform="translate(-794.91 -958.46)"/><path class="cls-1" d="M941.12,1003.11c-6.82-.05-13.06,5.42-12.74,12.71a12.25,12.25,0,0,0,12.5,12.67c8.17.1,12.8-6.09,13-12.55A12.67,12.67,0,0,0,941.12,1003.11Zm4.78,20.12a10,10,0,0,1-4.54,1.44,10.63,10.63,0,0,1-5.85-1.88,1.76,1.76,0,0,1-.68-2.49,6.4,6.4,0,0,1,5.38-4.33,6.55,6.55,0,0,1,6.63,3.35C947.92,1021,947.58,1022.1,945.9,1023.23Z" transform="translate(-794.91 -958.46)"/></svg>