<svg id="Capa_1" data-name="Capa 1" xmlns="http://www.w3.org/2000/svg" viewBox="0 0 162.43 219.7"><defs><style>.cls-1{fill:#070707;}</style></defs><path class="cls-1" d="M1924.37,724.56a162.62,162.62,0,0,0,12.33,36.49c10.87,22.55,26.69,40.73,48,54.05,2,1.23,3.95,2.42,5.94,3.61a.56.56,0,0,0,.45-.05c.37-.21.71-.47,1.08-.68a126.4,126.4,0,0,0,41.07-37,145.82,145.82,0,0,0,20.41-42.35,181.33,181.33,0,0,0,6-27.26,202.63,202.63,0,0,0,1.85-20.28,178.93,178.93,0,0,0-.13-17.94c-.09-1.48-.23-2.95-.35-4.47a7.8,7.8,0,0,1-.84,0c-2-.27-4.09-.38-6.08-.84a11.78,11.78,0,0,1-7.62-5.11,13.52,13.52,0,0,1-1.83-8.77c.07-.75.2-1.49.32-2.33h-8.61c0-2.32,0-4.55,0-6.78a1,1,0,0,0-.73-1.09,87.92,87.92,0,0,0-18-5.14,185.88,185.88,0,0,0-22.69-2.75c-1-.06-1.93-.16-2.89-.24h-2.17a3.84,3.84,0,0,1-.59.11l-4.32.28a178.66,178.66,0,0,0-24.71,3.42,79.33,79.33,0,0,0-14.14,4.32,1,1,0,0,0-.73,1.15c0,2,0,4,0,6v.8h-8.49a45,45,0,0,1,.25,4.72c-.21,4.69-2.25,8.28-6.58,10.4a17.46,17.46,0,0,1-5.7,1.61c-1.36.16-2.72.24-4.11.35,0,.21-.08.41-.09.61-.14,2-.31,3.91-.4,5.88a196.55,196.55,0,0,0,4.18,49.31Zm74-69.89c1.63.3,3.23.52,4.8.89a68.83,68.83,0,0,1,38.71,24.36,29,29,0,0,1,5.87,11.4c1.52,6.24,0,11.84-3.71,16.93a39.42,39.42,0,0,1-10.48,9.5c-1.81,1.18-3.71,2.22-5.58,3.32-.26.16-.54.3-.91.5l1,.65a13.65,13.65,0,0,1,6.35,8.74,18.6,18.6,0,0,1-.4,7.57c-1.46,7.43-4.86,14-9,20.2-5.32,8-11.28,15.52-17.33,23-2.92,3.59-5.89,7.13-8.85,10.7-.13.16-.28.31-.5.55Zm-6,57.35a4.55,4.55,0,1,1-4.53,4.56A4.56,4.56,0,0,1,1992.38,712Zm-58.48-25,8.7-5.1a4.15,4.15,0,0,1,.47-.23,269.57,269.57,0,0,0,18.54,63.88h.2c0-.63.12-1.26.16-1.88.29-3.88.67-7.74.82-11.62a17.39,17.39,0,0,0-.7-4.31c-2.31-10.39-4.41-20.83-6-31.35-1.07-7-2-14.07-2.93-21.11-.31-2.33-.48-4.67-.67-7a.72.72,0,0,1,.35-.58c3.27-1.35,6.55-2.67,9.84-4a1.4,1.4,0,0,1,.33-.07c1.67,25.57,6.43,50.57,13,75.26h.19v-.66q-.18-40.34-.39-80.68c0-.72.11-1,.92-1.15,3.39-.5,6.77-1.1,10.25-1.67q-.15,69.45-.3,139a6.45,6.45,0,0,1-.42-.54,84.9,84.9,0,0,1-7.15-13.49,269.65,269.65,0,0,1-9.9-26.61,1.16,1.16,0,0,0-.34-.57c-1.25,8.19-2.51,16.38-3.79,24.76-.81-1.18-1.54-2.2-2.23-3.24a147,147,0,0,1-13-25.28,296,296,0,0,1-14.34-45.42c-1.06-4.52-1.88-9.09-2.78-13.65C1932.37,687.94,1932.4,687.92,1933.9,687Z" transform="translate(-1911.4 -635.63)"/><path class="cls-1" d="M2073,843.32a22.19,22.19,0,0,1-6.22,4.9,2,2,0,0,1,.07-1c.47-1.05.94-2.1,1.49-3.11a4.15,4.15,0,0,0-1-5.3.89.89,0,0,0-1.11-.15,14.37,14.37,0,0,0-1.6,1c-1.72,1.42-3.41,2.88-5,4.28.2-.48.45-1.07.72-1.66a1.71,1.71,0,0,0-.07-1.68,6.58,6.58,0,0,0-3.69-2.49c-.9,3-3.24,4.37-5.76,5.56a2,2,0,0,1,.29-.6,2.22,2.22,0,0,0-.58-3.33,1.37,1.37,0,0,0-1.57-.23c-.74.36-1.46.75-2,1-.74-.8-1.45-1.57-2.15-2.35a.85.85,0,0,0-1.09-.18,16.9,16.9,0,0,0-5.92,4.52c-1.45,1.6-3,3.14-4.51,4.67a3.25,3.25,0,0,1-1,.46,4.84,4.84,0,0,1,.13-1.08c.51-1.42,1-2.83,1.61-4.23a1.93,1.93,0,0,0-.32-2.09,7.16,7.16,0,0,0-3.31-2.12,14.66,14.66,0,0,1-1.2,1.92c-2,2.27-4,4.5-6,6.72a8.54,8.54,0,0,1-1.39,1l-.23-.18a5.68,5.68,0,0,1,.19-.93c1.52-4,3-8,4.56-12a.57.57,0,0,1,.66-.41c.81,0,1.63,0,2.43,0a1.25,1.25,0,0,0,.84-.43,2.93,2.93,0,0,0,.5-2.37h-3.11c.3-1.5,1.54-2.74.74-4.34a6.15,6.15,0,0,0-3.28-3l-.27.66c-.81,2.06-1.62,4.12-2.4,6.19a.67.67,0,0,1-.78.52c-2.89,0-5.78,0-8.67,0s-5.87,0-8.8,0a3.1,3.1,0,0,0-3,2.85H2021c-1,2.43-1.57,5-3.39,6.87-.48.51-.87,1.1-1.35,1.61q-2.16,2.24-4.38,4.42a3.75,3.75,0,0,1-.86.48l-.18-.18c.12-.4.2-.81.35-1.2.51-1.37,1-2.74,1.57-4.1a1.88,1.88,0,0,0-.3-2,7.13,7.13,0,0,0-3.47-2.21l-1.29,3.32a20.61,20.61,0,0,0-2-2.41c-1.23-1.11-2.11-1.1-3.49-.22a17.06,17.06,0,0,0-4.29,4,24.83,24.83,0,0,1-4.64,4.8,11.43,11.43,0,0,1-1.12.67l-.19-.13a4,4,0,0,1,.17-.93,22.73,22.73,0,0,1,1.44-3,3.89,3.89,0,0,0-.21-4.61c-.9-1.32-1.31-1.4-2.65-.53a30.9,30.9,0,0,0-6.15,5.38l-.36.4a12.34,12.34,0,0,1,.73-2.07,2.22,2.22,0,0,0-.08-2.14,9,9,0,0,0-1.16-1.57c-.83-.85-1-.86-2-.24a25,25,0,0,0-5.68,4.87l-.61.69a10.49,10.49,0,0,1,.76-2.1,1.7,1.7,0,0,0,0-1.68,6.45,6.45,0,0,0-3.69-2.53,6.43,6.43,0,0,1-.47,1.07,42.56,42.56,0,0,1-7.29,8.16,4.12,4.12,0,0,1-.77.43l-.19-.14c.1-.39.16-.8.3-1.19q.78-2.09,1.59-4.17a1.77,1.77,0,0,0-.16-1.74,6.82,6.82,0,0,0-3.55-2.41c-3.09,5-7.38,9.84-9,10a5.34,5.34,0,0,1,.23-1.06,19.76,19.76,0,0,1,1.39-2.85,4,4,0,0,0-.47-5c-.72-.9-1.12-1-2-.34-1.53,1.11-3,2.31-4.46,3.51-.6.5-1.12,1.1-1.68,1.65a9,9,0,0,1,.63-1.67,2,2,0,0,0-.43-2.41,6.65,6.65,0,0,0-3.7-2c-1.13-.19-2.27-.29-3.47-.43.12-.27.2-.5.31-.72,1.89-3.71,3.78-7.43,5.7-11.13a2.35,2.35,0,0,0,.13-2.14,8.35,8.35,0,0,0-3.19-3.6l-1.44,1.07A109.88,109.88,0,0,0,1923.92,837a1.59,1.59,0,0,1-1.27.61c-2.23.08-4.46.19-6.69.31-1,.05-1.94.13-2.9.26a1.91,1.91,0,0,0-1.56,1.42,1.31,1.31,0,0,0,.58,1.61c.28.22.52.5.79.74l4.1,3.68c-.09.14-.18.3-.28.44-1.11,1.54-2.21,3.09-3.31,4.63a3,3,0,0,0,1.5,4.63q2.52-3.74,5.08-7.5c1.1.68,2.09,1.34,3.13,1.93a20.47,20.47,0,0,0,9.13,3.08c1.17,0,1.13,0,1.5-1.07,1.14-3.42,2.32-6.83,3.51-10.23.06-.2.29-.5.42-.49,1.28.08,2.55.21,3.87.33-.11.34-.19.57-.27.8-.89,2.32-1.77,4.64-2.66,6.95a1.82,1.82,0,0,0,.12,1.74,5.46,5.46,0,0,0,2.51,2.09c.35.15.57.12.74-.27a23.42,23.42,0,0,1,5.43-7.36c.69-.68,1.46-1.27,2.19-1.91l.13.13c-.11.19-.23.37-.33.56-.87,1.73-1.78,3.45-2.61,5.2a2,2,0,0,0-.1,1.29A4,4,0,0,0,1949,853c.78.36,1.41-.25,2.07-.55a8.32,8.32,0,0,0,1.11-.66,33.8,33.8,0,0,0,5.95-5,4.07,4.07,0,0,0,.37-.55l.21.15c-.36.94-.74,1.87-1.07,2.83a2,2,0,0,0-.12,1.11,4.31,4.31,0,0,0,2.47,2.63c.92.43,1.64-.16,2.39-.57a2.87,2.87,0,0,0,.61-.42c1.91-1.78,3.81-3.58,5.71-5.38.21-.19.4-.42.59-.63a13.14,13.14,0,0,1-.94,2.86,2.21,2.21,0,0,0,.62,2.85,13.52,13.52,0,0,0,1.74,1.26c.43.28.74.16,1-.32a38.83,38.83,0,0,1,5.2-6.91c.77-.81,1.63-1.54,2.44-2.3l.15.12c-.07.2-.14.4-.22.6-.72,1.78-1.42,3.56-2.17,5.32a1.48,1.48,0,0,0,.29,1.74,7,7,0,0,0,3.36,1.9c.41-.78.77-1.53,1.2-2.24a25.7,25.7,0,0,1,1.46-2.12c.51-.66,1-1.3,1.61-1.91s1.19-1.24,1.82-1.82,1.22-1,1.89-1.58c-1,2-1.87,3.79-2.81,5.61a2.2,2.2,0,0,0,.5,2.77,10.5,10.5,0,0,0,1.13,1,1.3,1.3,0,0,0,1.57.14c1.33-.81,2.66-1.61,4-2.47a24.26,24.26,0,0,0,1.92-1.53,7.55,7.55,0,0,0,2.29,3.37c1.08,1,1.72,1.12,3,.42a18.66,18.66,0,0,0,2.6-1.82c.68-.56,1.27-1.23,1.89-1.84a3.48,3.48,0,0,0-.13,1.13,4.19,4.19,0,0,0,2.4,2.76,2.16,2.16,0,0,0,2.39-.49,45,45,0,0,0,3.7-3c1.2-1.1,2.29-2.32,3.55-3.62-.48,1.26-.91,2.35-1.3,3.44a2,2,0,0,0-.16,1,4.21,4.21,0,0,0,2.36,2.72,2.1,2.1,0,0,0,2.39-.45,43.4,43.4,0,0,0,3.66-3c1.22-1.12,2.34-2.37,3.62-3.69-.42,1.1-.71,2.07-1.15,3a2.51,2.51,0,0,0,.7,3.16c1.45,1.44,2.33,1.61,4,.41,1.45-1.07,2.76-2.32,4.13-3.49.2-.17.38-.36.55-.52a20.68,20.68,0,0,0,.89,2.38c1.22,2.45,2.63,3,5.12,1.83a22.29,22.29,0,0,0,6.69-4.77,2.87,2.87,0,0,1,.75-.54l4.66-2.44c.16-.08.31-.19.61-.38-.66,1.73-1.25,3.31-1.87,4.88a1.67,1.67,0,0,0,.11,1.55A5.38,5.38,0,0,0,2055,853c.38.16.56.06.72-.3a25.38,25.38,0,0,1,6.8-8.58c.28-.24.59-.43.88-.65a1.37,1.37,0,0,1-.22.6c-.88,1.73-1.78,3.45-2.63,5.18a2,2,0,0,0-.19,1.11,4,4,0,0,0,2.15,2.56c.74.45,1.4,0,2-.33,2.2-1.41,4.38-2.85,6.52-4.35a14.37,14.37,0,0,0,2.23-2A1.85,1.85,0,0,0,2073,843.32Zm-154.41.24-2.73-2.34.09-.19,4.86-.3Zm9.39,5.5-6.43-3.46c1-1.38,2-2.62,2.91-3.94a2.16,2.16,0,0,1,2.17-1.06c1.55.1,3.1,0,4.78,0Zm5.18-12.17a.9.9,0,0,1-1,.61c-1.4,0-2.79,0-4.28,0,1.35-2.12,9.26-10.47,11.32-11.93-.32.51-.58.9-.8,1.3C1936.69,830.19,1934.91,833.53,1933.17,836.89Zm73.2,7.6q-2.17,2-4.39,3.91a16.73,16.73,0,0,1-1.43,1,3.23,3.23,0,0,1,.3-2.32A12.34,12.34,0,0,1,2004,843a4.14,4.14,0,0,1,.55-.38,1.42,1.42,0,0,1,2.23,1A1.16,1.16,0,0,1,2006.37,844.49Zm38.39,3-3.83,2.34a2.16,2.16,0,0,1-.41-2,7,7,0,0,1,2.77-4.11,8.75,8.75,0,0,1,1.51-.94C2044.11,844.3,2043.37,845.79,2044.76,847.46Z" transform="translate(-1911.4 -635.63)"/><path class="cls-1" d="M1967.23,829a7,7,0,0,0-4.15,4.19c-.35,1,.48,2.24,1.8,2.85a1.25,1.25,0,0,0,.93,0,7.92,7.92,0,0,0,3.67-3.38,3.9,3.9,0,0,0,.28-.76,3.2,3.2,0,0,0-2.13-2.91A.78.78,0,0,0,1967.23,829Z" transform="translate(-1911.4 -635.63)"/><path class="cls-1" d="M2035.1,829.19a8.21,8.21,0,0,0-3.48,3.4,4.33,4.33,0,0,0-.28.84,2.92,2.92,0,0,0,1.84,2.6,1.36,1.36,0,0,0,1,0,7.94,7.94,0,0,0,3.24-2.7,2.65,2.65,0,0,0-.92-4.12A1.32,1.32,0,0,0,2035.1,829.19Z" transform="translate(-1911.4 -635.63)"/><path class="cls-1" d="M2006.26,815.29a9.29,9.29,0,0,1-.48,1.15,12.35,12.35,0,0,0-.61-1.51.89.89,0,0,0-.65-.26c-.12,0-.33.21-.36.35-.19,1-.34,2-.52,3h.86c.1-.56.19-1.1.28-1.64a7.26,7.26,0,0,1,.69,1.32,2.19,2.19,0,0,0,.27.35c.12-.12.28-.21.35-.35.22-.45.4-.91.6-1.37l.12,0c.08.55.16,1.09.24,1.66h.87l-.51-3.32C2006.72,814.5,2006.41,814.73,2006.26,815.29Z" transform="translate(-1911.4 -635.63)"/><path class="cls-1" d="M2002.8,818.06v-2.59l.67-.12v-.67h-2.27v.69l.71.12v2.57Z" transform="translate(-1911.4 -635.63)"/><path class="cls-1" d="M2021.72,713.28a39.81,39.81,0,0,0,10-6.35c5.42-4.79,6.7-11.42,3.48-17.91a28.06,28.06,0,0,0-7.21-8.78,70.93,70.93,0,0,0-15.51-9.69c-1-.47-2-.93-3-1.43v49.19c.3-.09.52-.14.73-.22C2014,716.5,2017.92,715,2021.72,713.28Z" transform="translate(-1911.4 -635.63)"/><path class="cls-1" d="M2008.74,762.08V763c.26-.29.41-.44.55-.61.81-1,1.64-2,2.43-3.08a86.76,86.76,0,0,0,9.13-14.36,17.79,17.79,0,0,0,1.3-11.48,8.4,8.4,0,0,0-5.61-6.82,1.59,1.59,0,0,0-1,0c-2,.76-4.08,1.59-6.13,2.34a.88.88,0,0,0-.67,1Q2008.75,746,2008.74,762.08Z" transform="translate(-1911.4 -635.63)"/></svg>